<svg width="6" height="10" viewBox="0 0 6 10" fill="none" xmlns="http://www.w3.org/2000/svg">
<path d="M0.943848 9.88155C0.884414 9.94099 0.795264 9.9707 0.676397 9.9707C0.537718 9.9707 0.423804 9.92118 0.334653 9.82212C0.245503 9.72306 0.200928 9.6042 0.200928 9.46552V0.966509C0.200928 0.82783 0.245503 0.708962 0.334653 0.609907C0.423804 0.510851 0.537718 0.461323 0.676397 0.461323C0.775453 0.461323 0.854698 0.491039 0.914131 0.550473L1.00328 0.609907L5.6391 4.65139C5.81741 4.82969 5.90656 5.0179 5.90656 5.21601C5.90656 5.41412 5.81741 5.60233 5.6391 5.78063L1.00328 9.82212L0.943848 9.88155Z" fill="#1D1E1F"/>
</svg>
