<svg width="11" height="10" viewBox="0 0 11 10" fill="none" xmlns="http://www.w3.org/2000/svg">
<path d="M5.27911 0.111428C4.38708 0.111428 3.55509 0.338725 2.78313 0.793319C2.03692 1.22218 1.44937 1.80972 1.02051 2.55594C0.56592 3.32789 0.338623 4.15988 0.338623 5.05191C0.338623 5.94395 0.56592 6.77594 1.02051 7.54789C1.44937 8.29411 2.03692 8.88594 2.78313 9.32338C3.55509 9.76939 4.38708 9.9924 5.27911 9.9924C6.17114 9.9924 7.00313 9.76939 7.77508 9.32338C8.5213 8.88594 9.11313 8.29411 9.55057 7.54789C9.99659 6.77594 10.2196 5.94395 10.2196 5.05191C10.2196 4.15988 9.99659 3.32789 9.55057 2.55594C9.11313 1.80972 8.5213 1.22218 7.77508 0.793319C7.00313 0.338725 6.17114 0.111428 5.27911 0.111428ZM5.27911 0.934843C6.02533 0.934843 6.72008 1.12354 7.36338 1.50094C7.98094 1.86118 8.46984 2.35009 8.83008 2.96765C9.20748 3.61094 9.39618 4.3057 9.39618 5.05191C9.39618 5.79813 9.20748 6.49289 8.83008 7.13618C8.46984 7.75374 7.98094 8.24265 7.36338 8.60289C6.72008 8.98029 6.02533 9.16899 5.27911 9.16899C4.53289 9.16899 3.83813 8.98029 3.19484 8.60289C2.57728 8.24265 2.08838 7.75374 1.72813 7.13618C1.35074 6.49289 1.16204 5.79813 1.16204 5.05191C1.16204 4.3057 1.35074 3.61094 1.72813 2.96765C2.08838 2.35009 2.57728 1.86118 3.19484 1.50094C3.83813 1.12354 4.53289 0.934843 5.27911 0.934843ZM4.8674 1.75826V5.46362H7.74935V4.64021H5.69082V1.75826H4.8674Z" fill="#6C6C6C"/>
</svg>
