<svg width="61" height="60" viewBox="0 0 61 60" fill="none" xmlns="http://www.w3.org/2000/svg">
<g filter="url(#filter0_d_3015_443)">
<rect x="2.5" y="1" width="56" height="56" rx="12" fill="white"/>
<rect x="3" y="1.5" width="55" height="55" rx="11.5" stroke="#EAECF0"/>
<path fill-rule="evenodd" clip-rule="evenodd" d="M16.5579 28.9994C16.5579 21.2995 22.7999 15.0575 30.4998 15.0575C38.1997 15.0575 44.4416 21.2995 44.4416 28.9994C44.4416 36.6993 38.1997 42.9414 30.4998 42.9414C22.7999 42.9414 16.5579 36.6993 16.5579 28.9994ZM30.4998 17.0574C23.9044 17.0574 18.5578 22.404 18.5578 28.9994C18.5578 35.5947 23.9044 40.9415 30.4998 40.9415C37.0951 40.9415 42.4417 35.5947 42.4417 28.9994C42.4417 22.404 37.0951 17.0574 30.4998 17.0574ZM32.0787 35.3154C32.0787 36.1873 31.3718 36.8942 30.4999 36.8942C29.6279 36.8942 28.921 36.1873 28.921 35.3154C28.921 34.4434 29.6279 33.7365 30.4999 33.7365C31.3718 33.7365 32.0787 34.4434 32.0787 35.3154ZM27.4476 26.3686C27.4476 24.9416 28.6793 23.5793 30.5001 23.5793C32.3208 23.5793 33.5525 24.9416 33.5525 26.3686C33.5525 27.4026 32.9841 27.9308 32.004 28.5262C31.8947 28.5927 31.7685 28.6659 31.6335 28.7443C31.2479 28.9683 30.7903 29.2341 30.4463 29.502C29.9361 29.8996 29.3422 30.5409 29.3422 31.5261C29.3423 32.1656 29.8606 32.684 30.5001 32.684C31.1366 32.684 31.6531 32.1703 31.6579 31.5349L31.659 31.5331C31.6773 31.5043 31.7313 31.4364 31.8696 31.3287C32.0832 31.1622 32.3211 31.0243 32.6381 30.8406C32.8034 30.7448 32.9903 30.6365 33.2063 30.5053C34.3314 29.8218 35.8681 28.6923 35.8681 26.3686C35.8681 23.5854 33.5211 21.2637 30.5001 21.2637C27.4791 21.2637 25.132 23.5854 25.132 26.3686C25.132 27.008 25.6504 27.5264 26.2898 27.5264C26.9293 27.5264 27.4476 27.008 27.4476 26.3686Z" fill="#344054"/>
</g>
<defs>
<filter id="filter0_d_3015_443" x="0.5" y="0" width="60" height="60" filterUnits="userSpaceOnUse" color-interpolation-filters="sRGB">
<feFlood flood-opacity="0" result="BackgroundImageFix"/>
<feColorMatrix in="SourceAlpha" type="matrix" values="0 0 0 0 0 0 0 0 0 0 0 0 0 0 0 0 0 0 127 0" result="hardAlpha"/>
<feOffset dy="1"/>
<feGaussianBlur stdDeviation="1"/>
<feColorMatrix type="matrix" values="0 0 0 0 0.0627451 0 0 0 0 0.0941176 0 0 0 0 0.156863 0 0 0 0.05 0"/>
<feBlend mode="normal" in2="BackgroundImageFix" result="effect1_dropShadow_3015_443"/>
<feBlend mode="normal" in="SourceGraphic" in2="effect1_dropShadow_3015_443" result="shape"/>
</filter>
</defs>
</svg>
