<svg width="146" height="52" viewBox="0 0 146 52" fill="none" xmlns="http://www.w3.org/2000/svg">
<path d="M16.678 22.2721C16.678 23.3286 16.4233 24.3191 15.914 25.2435C15.4235 26.1679 14.6405 26.9131 13.5652 27.4791C12.5087 28.045 11.1693 28.328 9.54682 28.328H6.23591V35.912H2.27413V16.1597H9.54682C11.0749 16.1597 12.3767 16.4238 13.452 16.952C14.5273 17.4803 15.3291 18.2066 15.8574 19.131C16.4045 20.0554 16.678 21.1025 16.678 22.2721ZM9.37703 25.1303C10.4712 25.1303 11.2825 24.885 11.8107 24.3945C12.3389 23.8852 12.6031 23.1777 12.6031 22.2721C12.6031 20.3478 11.5277 19.3857 9.37703 19.3857H6.23591V25.1303H9.37703ZM23.4526 14.9711V35.912H19.4908V14.9711H23.4526ZM26.3481 28.0167C26.3481 26.432 26.6594 25.0265 27.282 23.8003C27.9234 22.574 28.7818 21.6307 29.8571 20.9704C30.9513 20.3101 32.1682 19.98 33.5076 19.98C34.6773 19.98 35.696 20.2158 36.5639 20.6874C37.4506 21.1591 38.158 21.7533 38.6862 22.4702V20.2347H42.6763V35.912H38.6862V33.6198C38.1769 34.3556 37.4694 34.9687 36.5639 35.4592C35.6772 35.9309 34.649 36.1667 33.4793 36.1667C32.1587 36.1667 30.9513 35.8271 29.8571 35.1479C28.7818 34.4688 27.9234 33.5161 27.282 32.2898C26.6594 31.0447 26.3481 29.6203 26.3481 28.0167ZM38.6862 28.0733C38.6862 27.1112 38.4976 26.2905 38.1203 25.6114C37.743 24.9133 37.2336 24.3851 36.5922 24.0266C35.9507 23.6493 35.2621 23.4607 34.5264 23.4607C33.7906 23.4607 33.1115 23.6399 32.4889 23.9983C31.8663 24.3568 31.357 24.885 30.9608 25.5831C30.5835 26.2622 30.3948 27.0734 30.3948 28.0167C30.3948 28.96 30.5835 29.7901 30.9608 30.507C31.357 31.205 31.8663 31.7427 32.4889 32.12C33.1303 32.4973 33.8095 32.686 34.5264 32.686C35.2621 32.686 35.9507 32.5067 36.5922 32.1483C37.2336 31.771 37.743 31.2427 38.1203 30.5636C38.4976 29.8656 38.6862 29.0355 38.6862 28.0733ZM61.5439 20.2347L51.8375 43.3262H47.621L51.0169 35.5158L44.7346 20.2347H49.1775L53.2241 31.1861L57.3274 20.2347H61.5439ZM62.6608 28.0167C62.6608 26.432 62.9721 25.0265 63.5946 23.8003C64.2361 22.574 65.0944 21.6307 66.1698 20.9704C67.264 20.3101 68.4808 19.98 69.8203 19.98C70.9899 19.98 72.0087 20.2158 72.8765 20.6874C73.7632 21.1591 74.4707 21.7533 74.9989 22.4702V20.2347H78.989V35.912H74.9989V33.6198C74.4895 34.3556 73.7821 34.9687 72.8765 35.4592C71.9898 35.9309 70.9616 36.1667 69.792 36.1667C68.4714 36.1667 67.264 35.8271 66.1698 35.1479C65.0944 34.4688 64.2361 33.5161 63.5946 32.2898C62.9721 31.0447 62.6608 29.6203 62.6608 28.0167ZM74.9989 28.0733C74.9989 27.1112 74.8102 26.2905 74.4329 25.6114C74.0556 24.9133 73.5462 24.3851 72.9048 24.0266C72.2634 23.6493 71.5748 23.4607 70.839 23.4607C70.1033 23.4607 69.4241 23.6399 68.8015 23.9983C68.179 24.3568 67.6696 24.885 67.2734 25.5831C66.8961 26.2622 66.7074 27.0734 66.7074 28.0167C66.7074 28.96 66.8961 29.7901 67.2734 30.507C67.6696 31.205 68.179 31.7427 68.8015 32.12C69.443 32.4973 70.1221 32.686 70.839 32.686C71.5748 32.686 72.2634 32.5067 72.9048 32.1483C73.5462 31.771 74.0556 31.2427 74.4329 30.5636C74.8102 29.8656 74.9989 29.0355 74.9989 28.0733ZM81.8396 28.0167C81.8396 26.432 82.1509 25.0265 82.7734 23.8003C83.4149 22.574 84.2733 21.6307 85.3486 20.9704C86.4428 20.3101 87.6596 19.98 88.9991 19.98C90.1688 19.98 91.1875 20.2158 92.0553 20.6874C92.942 21.1591 93.6495 21.7533 94.1777 22.4702V20.2347H98.1678V35.912H94.1777V33.6198C93.6683 34.3556 92.9609 34.9687 92.0553 35.4592C91.1686 35.9309 90.1405 36.1667 88.9708 36.1667C87.6502 36.1667 86.4428 35.8271 85.3486 35.1479C84.2733 34.4688 83.4149 33.5161 82.7734 32.2898C82.1509 31.0447 81.8396 29.6203 81.8396 28.0167ZM94.1777 28.0733C94.1777 27.1112 93.9891 26.2905 93.6117 25.6114C93.2344 24.9133 92.7251 24.3851 92.0836 24.0266C91.4422 23.6493 90.7536 23.4607 90.0178 23.4607C89.2821 23.4607 88.6029 23.6399 87.9804 23.9983C87.3578 24.3568 86.8484 24.885 86.4522 25.5831C86.0749 26.2622 85.8863 27.0734 85.8863 28.0167C85.8863 28.96 86.0749 29.7901 86.4522 30.507C86.8484 31.205 87.3578 31.7427 87.9804 32.12C88.6218 32.4973 89.3009 32.686 90.0178 32.686C90.7536 32.686 91.4422 32.5067 92.0836 32.1483C92.7251 31.771 93.2344 31.2427 93.6117 30.5636C93.9891 29.8656 94.1777 29.0355 94.1777 28.0733Z" fill="black"/>
<path d="M109.228 26.6187L84.2607 51.9121L112.243 26.6187L104.402 18.3411H108.396L114.45 23.5519L128.849 7.57861L114.45 22.4576L108.82 16.1342H98.9064L109.228 26.6187Z" fill="#DD0000"/>
<path d="M120.922 26.8444L145.552 0.415787L117.693 26.8444L125.79 35.122H121.54L115.711 29.716L97.5209 48.1691L115.711 31.161L121.116 37.3289H131.282L120.922 26.8444Z" fill="#DD0000"/>
</svg>
