<svg width="146" height="52" viewBox="0 0 146 52" fill="none" xmlns="http://www.w3.org/2000/svg">
<path d="M16.7388 22.1015C16.7388 23.158 16.4841 24.1484 15.9748 25.0728C15.4843 25.9972 14.7013 26.7424 13.626 27.3084C12.5695 27.8744 11.2301 28.1574 9.60761 28.1574H6.2967V35.7413H2.33492V15.989H9.60761C11.1357 15.989 12.4375 16.2531 13.5128 16.7814C14.5881 17.3096 15.3899 18.0359 15.9182 18.9604C16.4653 19.8848 16.7388 20.9318 16.7388 22.1015ZM9.43782 24.9596C10.532 24.9596 11.3433 24.7144 11.8715 24.2239C12.3997 23.7145 12.6638 23.007 12.6638 22.1015C12.6638 20.1772 11.5885 19.215 9.43782 19.215H6.2967V24.9596H9.43782ZM23.5134 14.8005V35.7413H19.5516V14.8005H23.5134ZM26.4089 27.8461C26.4089 26.2614 26.7202 24.8559 27.3428 23.6296C27.9842 22.4033 28.8426 21.4601 29.9179 20.7998C31.0121 20.1395 32.229 19.8093 33.5684 19.8093C34.7381 19.8093 35.7568 20.0451 36.6247 20.5168C37.5113 20.9884 38.2188 21.5827 38.747 22.2996V20.064H42.7371V35.7413H38.747V33.4492C38.2377 34.1849 37.5302 34.7981 36.6247 35.2886C35.738 35.7602 34.7098 35.996 33.5401 35.996C32.2195 35.996 31.0121 35.6564 29.9179 34.9773C28.8426 34.2981 27.9842 33.3454 27.3428 32.1191C26.7202 30.874 26.4089 29.4496 26.4089 27.8461ZM38.747 27.9027C38.747 26.9405 38.5584 26.1199 38.1811 25.4407C37.8038 24.7427 37.2944 24.2144 36.653 23.856C36.0115 23.4787 35.3229 23.29 34.5872 23.29C33.8514 23.29 33.1722 23.4692 32.5497 23.8277C31.9271 24.1861 31.4177 24.7144 31.0216 25.4124C30.6443 26.0916 30.4556 26.9028 30.4556 27.8461C30.4556 28.7894 30.6443 29.6194 31.0216 30.3363C31.4177 31.0344 31.9271 31.572 32.5497 31.9493C33.1911 32.3267 33.8703 32.5153 34.5872 32.5153C35.3229 32.5153 36.0115 32.3361 36.653 31.9776C37.2944 31.6003 37.8038 31.0721 38.1811 30.3929C38.5584 29.6949 38.747 28.8648 38.747 27.9027ZM61.6047 20.064L51.8983 43.1555H47.6818L51.0776 35.3452L44.7954 20.064H49.2382L53.2849 31.0155L57.3882 20.064H61.6047ZM62.7216 27.8461C62.7216 26.2614 63.0328 24.8559 63.6554 23.6296C64.2968 22.4033 65.1552 21.4601 66.2306 20.7998C67.3248 20.1395 68.5416 19.8093 69.8811 19.8093C71.0507 19.8093 72.0695 20.0451 72.9373 20.5168C73.824 20.9884 74.5314 21.5827 75.0597 22.2996V20.064H79.0498V35.7413H75.0597V33.4492C74.5503 34.1849 73.8428 34.7981 72.9373 35.2886C72.0506 35.7602 71.0224 35.996 69.8528 35.996C68.5322 35.996 67.3248 35.6564 66.2306 34.9773C65.1552 34.2981 64.2968 33.3454 63.6554 32.1191C63.0328 30.874 62.7216 29.4496 62.7216 27.8461ZM75.0597 27.9027C75.0597 26.9405 74.871 26.1199 74.4937 25.4407C74.1164 24.7427 73.607 24.2144 72.9656 23.856C72.3242 23.4787 71.6356 23.29 70.8998 23.29C70.1641 23.29 69.4849 23.4692 68.8623 23.8277C68.2398 24.1861 67.7304 24.7144 67.3342 25.4124C66.9569 26.0916 66.7682 26.9028 66.7682 27.8461C66.7682 28.7894 66.9569 29.6194 67.3342 30.3363C67.7304 31.0344 68.2398 31.572 68.8623 31.9493C69.5038 32.3267 70.1829 32.5153 70.8998 32.5153C71.6356 32.5153 72.3242 32.3361 72.9656 31.9776C73.607 31.6003 74.1164 31.0721 74.4937 30.3929C74.871 29.6949 75.0597 28.8648 75.0597 27.9027ZM81.9004 27.8461C81.9004 26.2614 82.2117 24.8559 82.8342 23.6296C83.4757 22.4033 84.3341 21.4601 85.4094 20.7998C86.5036 20.1395 87.7204 19.8093 89.0599 19.8093C90.2296 19.8093 91.2483 20.0451 92.1161 20.5168C93.0028 20.9884 93.7103 21.5827 94.2385 22.2996V20.064H98.2286V35.7413H94.2385V33.4492C93.7291 34.1849 93.0217 34.7981 92.1161 35.2886C91.2294 35.7602 90.2013 35.996 89.0316 35.996C87.711 35.996 86.5036 35.6564 85.4094 34.9773C84.3341 34.2981 83.4757 33.3454 82.8342 32.1191C82.2117 30.874 81.9004 29.4496 81.9004 27.8461ZM94.2385 27.9027C94.2385 26.9405 94.0498 26.1199 93.6725 25.4407C93.2952 24.7427 92.7859 24.2144 92.1444 23.856C91.503 23.4787 90.8144 23.29 90.0786 23.29C89.3429 23.29 88.6637 23.4692 88.0411 23.8277C87.4186 24.1861 86.9092 24.7144 86.513 25.4124C86.1357 26.0916 85.9471 26.9028 85.9471 27.8461C85.9471 28.7894 86.1357 29.6194 86.513 30.3363C86.9092 31.0344 87.4186 31.572 88.0411 31.9493C88.6826 32.3267 89.3617 32.5153 90.0786 32.5153C90.8144 32.5153 91.503 32.3361 92.1444 31.9776C92.7859 31.6003 93.2952 31.0721 93.6725 30.3929C94.0498 29.6949 94.2385 28.8648 94.2385 27.9027Z" fill="white"/>
<path d="M109.289 26.4481L84.3215 51.7415L112.304 26.4481L104.463 18.1704H108.456L114.51 23.3812L128.91 7.40796L114.51 22.2869L108.881 15.9636H98.9672L109.289 26.4481Z" fill="#DD0000"/>
<path d="M120.983 26.6737L145.613 0.245132L117.753 26.6737L125.851 34.9514H121.601L115.772 29.5454L97.5817 47.9984L115.772 30.9903L121.176 37.1582H131.343L120.983 26.6737Z" fill="#DD0000"/>
</svg>
