<svg width="44" height="45" viewBox="0 0 44 45" fill="none" xmlns="http://www.w3.org/2000/svg">
<g filter="url(#filter0_d_85_21492)">
<rect x="2" y="1.25" width="40" height="40" rx="8" fill="white"/>
<rect x="2.5" y="1.75" width="39" height="39" rx="7.5" stroke="#E4E4E7"/>
<path d="M18.6666 24.5833L22 21.25M22 21.25L25.3333 24.5833M22 21.25V28.75M28.6666 25.2024C29.6845 24.3617 30.3333 23.0899 30.3333 21.6667C30.3333 19.1354 28.2813 17.0833 25.75 17.0833C25.5679 17.0833 25.3975 16.9883 25.3051 16.8314C24.2183 14.9874 22.212 13.75 19.9166 13.75C16.4648 13.75 13.6666 16.5482 13.6666 20C13.6666 21.7218 14.3628 23.2809 15.4891 24.4113" stroke="#51525C" stroke-width="1.66667" stroke-linecap="round" stroke-linejoin="round"/>
</g>
<defs>
<filter id="filter0_d_85_21492" x="0" y="0.25" width="44" height="44" filterUnits="userSpaceOnUse" color-interpolation-filters="sRGB">
<feFlood flood-opacity="0" result="BackgroundImageFix"/>
<feColorMatrix in="SourceAlpha" type="matrix" values="0 0 0 0 0 0 0 0 0 0 0 0 0 0 0 0 0 0 127 0" result="hardAlpha"/>
<feOffset dy="1"/>
<feGaussianBlur stdDeviation="1"/>
<feColorMatrix type="matrix" values="0 0 0 0 0.0627451 0 0 0 0 0.0941176 0 0 0 0 0.156863 0 0 0 0.05 0"/>
<feBlend mode="normal" in2="BackgroundImageFix" result="effect1_dropShadow_85_21492"/>
<feBlend mode="normal" in="SourceGraphic" in2="effect1_dropShadow_85_21492" result="shape"/>
</filter>
</defs>
</svg>
